<svg xmlns="http://www.w3.org/2000/svg" viewBox="0 0 512 512">
  <defs>
    <radialGradient id="planet" cx="35%" cy="30%" r="68%">
      <stop offset="0%" stop-color="#d9f99d"/>
      <stop offset="36%" stop-color="#65a30d"/>
      <stop offset="74%" stop-color="#166534"/>
      <stop offset="100%" stop-color="#0f172a"/>
    </radialGradient>
  </defs>
  <rect width="512" height="512" fill="#020817"/>
  <circle cx="256" cy="256" r="176" fill="url(#planet)"/>
  <path d="M118 240c34-58 68-72 114-62 48 10 85 34 124 18 23-10 41-30 58-52-6 58-26 104-61 136-39 36-96 56-156 48-47-6-84-34-110-88 10 2 20 2 31 0z" fill="#34d399" opacity="0.76"/>
  <path d="M140 178c28-12 56-6 84 12 24 16 46 24 78 18-18 16-38 28-61 36-46 14-89 6-127-26 8-16 16-28 26-40z" fill="#bef264" opacity="0.62"/>
  <ellipse cx="256" cy="196" rx="144" ry="52" fill="#f8fafc" opacity="0.14"/>
</svg>
