<svg xmlns="http://www.w3.org/2000/svg" viewBox="0 0 512 512">
  <defs>
    <radialGradient id="planet" cx="38%" cy="28%" r="68%">
      <stop offset="0%" stop-color="#fdba74"/>
      <stop offset="34%" stop-color="#ef4444"/>
      <stop offset="74%" stop-color="#7c2d12"/>
      <stop offset="100%" stop-color="#0f172a"/>
    </radialGradient>
  </defs>
  <rect width="512" height="512" fill="#030712"/>
  <circle cx="256" cy="256" r="176" fill="url(#planet)"/>
  <path d="M118 280c36-34 74-46 114-34 34 8 60 22 88 18 34-6 66-34 108-84-12 66-34 114-66 144-36 32-86 52-146 48-48-2-90-32-126-92 10 2 19 2 28 0z" fill="#fb923c" opacity="0.76"/>
  <path d="M144 182c40 8 68 28 90 60 14 18 28 32 54 42-34 6-66 4-96-8-34-14-64-42-90-82 12-8 26-12 42-12z" fill="#fde68a" opacity="0.42"/>
  <ellipse cx="252" cy="188" rx="140" ry="48" fill="#fff7ed" opacity="0.1"/>
</svg>
