<svg xmlns="http://www.w3.org/2000/svg" viewBox="0 0 1600 900">
  <defs>
    <radialGradient id="space" cx="50%" cy="45%" r="70%">
      <stop offset="0%" stop-color="#1e3a5f"/>
      <stop offset="42%" stop-color="#0d2038"/>
      <stop offset="100%" stop-color="#020611"/>
    </radialGradient>
    <radialGradient id="nebulaA" cx="24%" cy="32%" r="34%">
      <stop offset="0%" stop-color="#7dd3fc" stop-opacity="0.92"/>
      <stop offset="58%" stop-color="#0ea5e9" stop-opacity="0.32"/>
      <stop offset="100%" stop-color="#0ea5e9" stop-opacity="0"/>
    </radialGradient>
    <radialGradient id="nebulaB" cx="71%" cy="38%" r="30%">
      <stop offset="0%" stop-color="#67e8f9" stop-opacity="0.72"/>
      <stop offset="58%" stop-color="#1d4ed8" stop-opacity="0.24"/>
      <stop offset="100%" stop-color="#1d4ed8" stop-opacity="0"/>
    </radialGradient>
    <radialGradient id="nebulaC" cx="54%" cy="62%" r="32%">
      <stop offset="0%" stop-color="#a5f3fc" stop-opacity="0.56"/>
      <stop offset="52%" stop-color="#0284c7" stop-opacity="0.18"/>
      <stop offset="100%" stop-color="#0284c7" stop-opacity="0"/>
    </radialGradient>
  </defs>
  <rect width="1600" height="900" fill="url(#space)"/>
  <rect width="1600" height="900" fill="url(#nebulaA)"/>
  <rect width="1600" height="900" fill="url(#nebulaB)"/>
  <rect width="1600" height="900" fill="url(#nebulaC)"/>
  <g fill="#dbeafe">
    <circle cx="84" cy="91" r="1.8"/>
    <circle cx="214" cy="164" r="1.3"/>
    <circle cx="296" cy="76" r="2.1"/>
    <circle cx="364" cy="238" r="1.2"/>
    <circle cx="512" cy="124" r="2.4"/>
    <circle cx="648" cy="186" r="1.4"/>
    <circle cx="772" cy="68" r="2.2"/>
    <circle cx="888" cy="154" r="1.7"/>
    <circle cx="1048" cy="106" r="1.3"/>
    <circle cx="1162" cy="208" r="2.1"/>
    <circle cx="1280" cy="128" r="1.6"/>
    <circle cx="1408" cy="182" r="2.4"/>
    <circle cx="1520" cy="116" r="1.5"/>
    <circle cx="142" cy="402" r="1.7"/>
    <circle cx="286" cy="322" r="1.1"/>
    <circle cx="438" cy="452" r="2.2"/>
    <circle cx="602" cy="366" r="1.3"/>
    <circle cx="764" cy="438" r="1.8"/>
    <circle cx="936" cy="334" r="1.2"/>
    <circle cx="1098" cy="414" r="2.5"/>
    <circle cx="1248" cy="360" r="1.4"/>
    <circle cx="1384" cy="468" r="1.9"/>
    <circle cx="1498" cy="398" r="1.2"/>
    <circle cx="174" cy="682" r="1.6"/>
    <circle cx="326" cy="598" r="2.3"/>
    <circle cx="486" cy="724" r="1.5"/>
    <circle cx="648" cy="648" r="1.1"/>
    <circle cx="812" cy="742" r="2.1"/>
    <circle cx="994" cy="612" r="1.4"/>
    <circle cx="1158" cy="708" r="1.8"/>
    <circle cx="1324" cy="632" r="1.2"/>
    <circle cx="1468" cy="744" r="2"/>
  </g>
</svg>
