<svg width="640" height="640" viewBox="0 0 640 640" fill="none" xmlns="http://www.w3.org/2000/svg">
  <rect width="640" height="640" fill="transparent"/>
  <g filter="url(#filter0_f)">
    <circle cx="300" cy="340" r="156" fill="#91C6FF" fill-opacity="0.16"/>
  </g>
  <circle cx="304" cy="344" r="132" fill="url(#paint0_radial)"/>
  <circle cx="276" cy="302" r="22" fill="#F2FAFF" fill-opacity="0.5"/>
  <circle cx="350" cy="382" r="16" fill="#233D67" fill-opacity="0.42"/>
  <circle cx="256" cy="398" r="11" fill="#173556" fill-opacity="0.46"/>
  <path d="M302 248L404 304L404 394L302 448L200 394L200 304L302 248Z" fill="#0D1F36" fill-opacity="0.8"/>
  <path d="M302 248L404 304L302 360L200 304L302 248Z" fill="#7FE8FF" fill-opacity="0.35"/>
  <path d="M404 304V394L302 448V360L404 304Z" fill="#1C5274" fill-opacity="0.52"/>
  <path d="M200 304L302 360V448L200 394V304Z" fill="#0D2749" fill-opacity="0.68"/>
  <path d="M454 232L532 278V366L454 412L376 366V278L454 232Z" fill="#102038" fill-opacity="0.9"/>
  <path d="M454 232L532 278L454 320L376 278L454 232Z" fill="#B8F8FF" fill-opacity="0.28"/>
  <path d="M454 412V320" stroke="#8BE8FF" stroke-opacity="0.5" stroke-width="8"/>
  <path d="M302 248V168" stroke="#9DEBFF" stroke-opacity="0.5" stroke-width="8"/>
  <circle cx="302" cy="150" r="18" fill="#7BEAFF" fill-opacity="0.7"/>
  <defs>
    <filter id="filter0_f" x="64" y="104" width="472" height="472" filterUnits="userSpaceOnUse" color-interpolation-filters="sRGB">
      <feFlood flood-opacity="0" result="BackgroundImageFix"/>
      <feBlend mode="normal" in="SourceGraphic" in2="BackgroundImageFix" result="shape"/>
      <feGaussianBlur stdDeviation="40" result="effect1_foregroundBlur"/>
    </filter>
    <radialGradient id="paint0_radial" cx="0" cy="0" r="1" gradientUnits="userSpaceOnUse" gradientTransform="translate(254 274) rotate(45.2637) scale(212.887)">
      <stop stop-color="#E9F7FF"/>
      <stop offset="0.34" stop-color="#AFC8E4"/>
      <stop offset="0.72" stop-color="#4D6180"/>
      <stop offset="1" stop-color="#142237"/>
    </radialGradient>
  </defs>
</svg>
